{
    "asset": {
        "copyright": "2020 (c) Adobe Inc.",
        "generator": "Adobe Dimension - 381cf499e4c74d2ada5dde7ebe90541f51590aae",
        "version": "2.0"
    },
    "accessors": [
        {
            "bufferView": 0,
            "componentType": 5126,
            "count": 179919,
            "type": "VEC3",
            "max": [
                0.07545670121908188,
                0.022497380152344705,
                0.24736838042736054
            ],
            "min": [
                -0.08263994753360748,
                -0.035131849348545077,
                0.10582461953163147
            ]
        },
        {
            "bufferView": 1,
            "componentType": 5126,
            "count": 179919,
            "type": "VEC3"
        },
        {
            "bufferView": 2,
            "componentType": 5126,
            "count": 179919,
            "type": "VEC2"
        },
        {
            "bufferView": 3,
            "componentType": 5125,
            "count": 179919,
            "type": "SCALAR",
            "max": [
                179918.0
            ],
            "min": [
                0.0
            ]
        }
    ],
    "bufferViews": [
        {
            "buffer": 0,
            "byteOffset": 0,
            "byteLength": 2159028,
            "target": 34962
        },
        {
            "buffer": 0,
            "byteOffset": 2159028,
            "byteLength": 2159028,
            "target": 34962
        },
        {
            "buffer": 0,
            "byteOffset": 4318056,
            "byteLength": 1439352,
            "target": 34962
        },
        {
            "buffer": 0,
            "byteOffset": 5757408,
            "byteLength": 719676,
            "target": 34963
        }
    ],
    "buffers": [
        {
            "byteLength": 6477084,
            "uri": "test1_binary.bin"
        }
    ],
    "cameras": [
        {
            "perspective": {
                "znear": 0.000010000000656873454,
                "yfov": 0.6024156808853149,
                "zfar": 2.0,
                "aspectRatio": 1.3333333730697632
            },
            "type": "perspective",
            "name": "render_camera"
        }
    ],
    "images": [
        {
            "name": "Textured_mesh_3",
            "uri": "test1_images\\Textured_mesh_3.jpg",
            "mimeType": "image/jpeg"
        }
    ],
    "materials": [
        {
            "pbrMetallicRoughness": {
                "baseColorTexture": {
                    "index": 0
                },
                "metallicFactor": 0.0,
                "roughnessFactor": 0.6000000238418579
            },
            "name": "Textured_mesh_3",
            "doubleSided": true
        }
    ],
    "meshes": [
        {
            "name": "Group_Global",
            "primitives": [
                {
                    "attributes": {
                        "POSITION": 0,
                        "NORMAL": 1,
                        "TEXCOORD_0": 2
                    },
                    "indices": 3,
                    "material": 0
                }
            ]
        }
    ],
    "nodes": [
        {
            "translation": [
                0.49789169430732729,
                0.31655049324035647,
                0.3182470500469208
            ],
            "rotation": [
                -0.12059047073125839,
                0.379409521818161,
                0.04995020851492882,
                0.9159756302833557
            ],
            "scale": [
                1.0,
                1.0,
                0.9999999403953552
            ],
            "camera": 0,
            "name": "render_camera_n3d"
        },
        {
            "translation": [
                0.0046668099239468578,
                0.03914053365588188,
                0.1752632111310959
            ],
            "rotation": [
                0.9931537508964539,
                0.10408854484558106,
                -0.009713410399854184,
                0.052123311907052997
            ],
            "scale": [
                0.9999991655349731,
                0.9999994039535523,
                0.9999997019767761
            ],
            "mesh": 0,
            "name": "Group_Global"
        }
    ],
    "samplers": [
        {}
    ],
    "scenes": [
        {
            "nodes": [
                0,
                1
            ],
            "name": "scene"
        }
    ],
    "textures": [
        {
            "name": "Textured_mesh_3::baseColor::image17",
            "sampler": 0,
            "source": 0
        }
    ],
    "scene": 0
}